<svg width="163" height="27" viewBox="0 0 163 27" fill="none" xmlns="http://www.w3.org/2000/svg">
<path d="M18.144 3.536V7.92H12.192V26H6.72V7.92H0.768V3.536H18.144ZM19.8023 17.04C19.8023 15.2053 20.1436 13.5947 20.8263 12.208C21.5303 10.8213 22.4796 9.75467 23.6743 9.008C24.8689 8.26133 26.2023 7.888 27.6743 7.888C28.9329 7.888 30.0316 8.144 30.9703 8.656C31.9303 9.168 32.6663 9.84 33.1783 10.672V8.144H38.6503V26H33.1783V23.472C32.6449 24.304 31.8983 24.976 30.9383 25.488C29.9996 26 28.9009 26.256 27.6423 26.256C26.1916 26.256 24.8689 25.8827 23.6743 25.136C22.4796 24.368 21.5303 23.2907 20.8263 21.904C20.1436 20.496 19.8023 18.8747 19.8023 17.04ZM33.1783 17.072C33.1783 15.7067 32.7943 14.6293 32.0263 13.84C31.2796 13.0507 30.3623 12.656 29.2743 12.656C28.1863 12.656 27.2583 13.0507 26.4903 13.84C25.7436 14.608 25.3703 15.6747 25.3703 17.04C25.3703 18.4053 25.7436 19.4933 26.4903 20.304C27.2583 21.0933 28.1863 21.488 29.2743 21.488C30.3623 21.488 31.2796 21.0933 32.0263 20.304C32.7943 19.5147 33.1783 18.4373 33.1783 17.072ZM51.569 12.688H48.625V26H43.153V12.688H41.169V8.144H43.153V7.632C43.153 5.43467 43.7823 3.77067 45.041 2.64C46.2997 1.488 48.145 0.911999 50.577 0.911999C50.9823 0.911999 51.281 0.922665 51.473 0.943998V5.584C50.4277 5.52 49.6917 5.66933 49.265 6.032C48.8383 6.39467 48.625 7.04533 48.625 7.984V8.144H51.569V12.688ZM62.2683 26.256C60.5189 26.256 58.9403 25.8827 57.5323 25.136C56.1456 24.3893 55.0469 23.3227 54.2363 21.936C53.4469 20.5493 53.0523 18.928 53.0523 17.072C53.0523 15.2373 53.4576 13.6267 54.2682 12.24C55.0789 10.832 56.1883 9.75467 57.5963 9.008C59.0043 8.26133 60.5829 7.888 62.3323 7.888C64.0816 7.888 65.6603 8.26133 67.0683 9.008C68.4763 9.75467 69.5856 10.832 70.3963 12.24C71.2069 13.6267 71.6123 15.2373 71.6123 17.072C71.6123 18.9067 71.1963 20.528 70.3643 21.936C69.5536 23.3227 68.4336 24.3893 67.0043 25.136C65.5963 25.8827 64.0176 26.256 62.2683 26.256ZM62.2683 21.52C63.3136 21.52 64.1989 21.136 64.9243 20.368C65.6709 19.6 66.0443 18.5013 66.0443 17.072C66.0443 15.6427 65.6816 14.544 64.9563 13.776C64.2523 13.008 63.3776 12.624 62.3323 12.624C61.2656 12.624 60.3803 13.008 59.6763 13.776C58.9723 14.5227 58.6203 15.6213 58.6203 17.072C58.6203 18.5013 58.9616 19.6 59.6443 20.368C60.3483 21.136 61.2229 21.52 62.2683 21.52ZM82.6433 26.256C80.8939 26.256 79.3153 25.8827 77.9073 25.136C76.5206 24.3893 75.4219 23.3227 74.6113 21.936C73.8219 20.5493 73.4273 18.928 73.4273 17.072C73.4273 15.2373 73.8326 13.6267 74.6432 12.24C75.4539 10.832 76.5633 9.75467 77.9713 9.008C79.3793 8.26133 80.9579 7.888 82.7073 7.888C84.4566 7.888 86.0353 8.26133 87.4433 9.008C88.8513 9.75467 89.9606 10.832 90.7713 12.24C91.5819 13.6267 91.9873 15.2373 91.9873 17.072C91.9873 18.9067 91.5713 20.528 90.7393 21.936C89.9286 23.3227 88.8086 24.3893 87.3793 25.136C85.9713 25.8827 84.3926 26.256 82.6433 26.256ZM82.6433 21.52C83.6886 21.52 84.5739 21.136 85.2993 20.368C86.0459 19.6 86.4193 18.5013 86.4193 17.072C86.4193 15.6427 86.0566 14.544 85.3313 13.776C84.6273 13.008 83.7526 12.624 82.7073 12.624C81.6406 12.624 80.7553 13.008 80.0513 13.776C79.3473 14.5227 78.9953 15.6213 78.9953 17.072C78.9953 18.5013 79.3366 19.6 80.0193 20.368C80.7233 21.136 81.5979 21.52 82.6433 21.52ZM93.8023 17.04C93.8023 15.2053 94.1436 13.5947 94.8263 12.208C95.5303 10.8213 96.4796 9.75467 97.6743 9.008C98.8689 8.26133 100.202 7.888 101.674 7.888C102.848 7.888 103.914 8.13333 104.874 8.624C105.856 9.11467 106.624 9.776 107.178 10.608V2.32H112.65V26H107.178V23.44C106.666 24.2933 105.93 24.976 104.97 25.488C104.032 26 102.933 26.256 101.674 26.256C100.202 26.256 98.8689 25.8827 97.6743 25.136C96.4796 24.368 95.5303 23.2907 94.8263 21.904C94.1436 20.496 93.8023 18.8747 93.8023 17.04ZM107.178 17.072C107.178 15.7067 106.794 14.6293 106.026 13.84C105.28 13.0507 104.362 12.656 103.274 12.656C102.186 12.656 101.258 13.0507 100.49 13.84C99.7436 14.608 99.3703 15.6747 99.3703 17.04C99.3703 18.4053 99.7436 19.4933 100.49 20.304C101.258 21.0933 102.186 21.488 103.274 21.488C104.362 21.488 105.28 21.0933 106.026 20.304C106.794 19.5147 107.178 18.4373 107.178 17.072Z" fill="black"/>
<path d="M119.169 26.256C118.209 26.256 117.42 25.9787 116.801 25.424C116.204 24.848 115.905 24.144 115.905 23.312C115.905 22.4587 116.204 21.744 116.801 21.168C117.42 20.592 118.209 20.304 119.169 20.304C120.108 20.304 120.876 20.592 121.473 21.168C122.092 21.744 122.401 22.4587 122.401 23.312C122.401 24.144 122.092 24.848 121.473 25.424C120.876 25.9787 120.108 26.256 119.169 26.256ZM124.552 17.072C124.552 15.216 124.926 13.5947 125.672 12.208C126.44 10.8213 127.496 9.75467 128.84 9.008C130.206 8.26133 131.763 7.888 133.512 7.888C135.752 7.888 137.619 8.47467 139.112 9.648C140.627 10.8213 141.619 12.4747 142.088 14.608H136.264C135.774 13.2427 134.824 12.56 133.416 12.56C132.414 12.56 131.614 12.9547 131.016 13.744C130.419 14.512 130.12 15.6213 130.12 17.072C130.12 18.5227 130.419 19.6427 131.016 20.432C131.614 21.2 132.414 21.584 133.416 21.584C134.824 21.584 135.774 20.9013 136.264 19.536H142.088C141.619 21.6267 140.627 23.2693 139.112 24.464C137.598 25.6587 135.731 26.256 133.512 26.256C131.763 26.256 130.206 25.8827 128.84 25.136C127.496 24.3893 126.44 23.3227 125.672 21.936C124.926 20.5493 124.552 18.928 124.552 17.072ZM153.143 26.256C151.394 26.256 149.815 25.8827 148.407 25.136C147.021 24.3893 145.922 23.3227 145.111 21.936C144.322 20.5493 143.927 18.928 143.927 17.072C143.927 15.2373 144.333 13.6267 145.143 12.24C145.954 10.832 147.063 9.75467 148.471 9.008C149.879 8.26133 151.458 7.888 153.207 7.888C154.957 7.888 156.535 8.26133 157.943 9.008C159.351 9.75467 160.461 10.832 161.271 12.24C162.082 13.6267 162.487 15.2373 162.487 17.072C162.487 18.9067 162.071 20.528 161.239 21.936C160.429 23.3227 159.309 24.3893 157.879 25.136C156.471 25.8827 154.893 26.256 153.143 26.256ZM153.143 21.52C154.189 21.52 155.074 21.136 155.799 20.368C156.546 19.6 156.919 18.5013 156.919 17.072C156.919 15.6427 156.557 14.544 155.831 13.776C155.127 13.008 154.253 12.624 153.207 12.624C152.141 12.624 151.255 13.008 150.551 13.776C149.847 14.5227 149.495 15.6213 149.495 17.072C149.495 18.5013 149.837 19.6 150.519 20.368C151.223 21.136 152.098 21.52 153.143 21.52Z" fill="#FE9D02"/>
</svg>
